<mxfile host="app.diagrams.net" modified="2020-05-01T18:06:01.216Z" agent="5.0 (Macintosh; Intel Mac OS X 10_15_4) AppleWebKit/537.36 (KHTML, like Gecko) Chrome/80.0.3987.163 Safari/537.36" etag="zpPwZMOFhsaZdWJJlJFY" version="13.0.2" type="github">
  <diagram id="Yl78ND9KsOKY8eJn1o49" name="Page-1">
    <mxGraphModel dx="1577" dy="843" grid="1" gridSize="10" guides="1" tooltips="1" connect="1" arrows="1" fold="1" page="1" pageScale="1" pageWidth="827" pageHeight="1169" math="0" shadow="0">
      <root>
        <mxCell id="0" />
        <mxCell id="1" parent="0" />
        <mxCell id="TgJzeR70lB42lgEgy3rk-53" style="rounded=0;orthogonalLoop=1;jettySize=auto;html=1;exitX=0.5;exitY=1;exitDx=0;exitDy=0;entryX=0.5;entryY=0;entryDx=0;entryDy=0;dashed=1;strokeWidth=2;horizontal=1;" parent="1" source="TgJzeR70lB42lgEgy3rk-4" target="TgJzeR70lB42lgEgy3rk-26" edge="1">
          <mxGeometry relative="1" as="geometry" />
        </mxCell>
        <mxCell id="TgJzeR70lB42lgEgy3rk-4" value="" style="shape=actor;whiteSpace=wrap;html=1;strokeColor=#000000;horizontal=1;" parent="1" vertex="1">
          <mxGeometry x="177.5" y="20" width="65" height="80" as="geometry" />
        </mxCell>
        <mxCell id="TgJzeR70lB42lgEgy3rk-12" value="&lt;h1&gt;&lt;font style=&quot;font-size: 20px&quot;&gt;Project&lt;/font&gt;&lt;/h1&gt;&lt;p&gt;&lt;font style=&quot;font-size: 14px&quot;&gt;Target project with source code in local.&lt;/font&gt;&lt;/p&gt;" style="text;html=1;strokeColor=#000000;fillColor=#ffffff;spacing=5;spacingTop=-20;whiteSpace=wrap;overflow=hidden;rounded=0;verticalAlign=middle;horizontal=1;align=center;labelPosition=center;verticalLabelPosition=middle;" parent="1" vertex="1">
          <mxGeometry x="1197.5" y="171.25" width="200" height="110" as="geometry" />
        </mxCell>
        <mxCell id="TgJzeR70lB42lgEgy3rk-29" style="edgeStyle=orthogonalEdgeStyle;rounded=0;orthogonalLoop=1;jettySize=auto;html=1;entryX=0.5;entryY=1;entryDx=0;entryDy=0;dashed=1;strokeWidth=2;horizontal=1;" parent="1" source="TgJzeR70lB42lgEgy3rk-15" target="TgJzeR70lB42lgEgy3rk-10" edge="1">
          <mxGeometry relative="1" as="geometry" />
        </mxCell>
        <mxCell id="TgJzeR70lB42lgEgy3rk-63" value="Metrics records" style="edgeLabel;html=1;align=center;verticalAlign=middle;resizable=0;points=[];fontSize=14;" parent="TgJzeR70lB42lgEgy3rk-29" vertex="1" connectable="0">
          <mxGeometry x="-0.0502" y="-70" relative="1" as="geometry">
            <mxPoint x="-70" y="1.75" as="offset" />
          </mxGeometry>
        </mxCell>
        <mxCell id="TgJzeR70lB42lgEgy3rk-17" style="edgeStyle=none;rounded=0;orthogonalLoop=1;jettySize=auto;html=1;exitX=0.5;exitY=1;exitDx=0;exitDy=0;shadow=0;dashed=1;dashPattern=1 1;strokeWidth=1;fontSize=12;fontColor=#000000;horizontal=1;" parent="1" edge="1">
          <mxGeometry relative="1" as="geometry">
            <mxPoint x="487.5" y="540" as="sourcePoint" />
            <mxPoint x="487.5" y="540" as="targetPoint" />
          </mxGeometry>
        </mxCell>
        <mxCell id="TgJzeR70lB42lgEgy3rk-18" style="edgeStyle=none;rounded=0;orthogonalLoop=1;jettySize=auto;html=1;exitX=0.5;exitY=1;exitDx=0;exitDy=0;shadow=0;dashed=1;dashPattern=1 1;strokeWidth=1;fontSize=12;fontColor=#000000;horizontal=1;" parent="1" edge="1">
          <mxGeometry relative="1" as="geometry">
            <mxPoint x="487.5" y="540" as="sourcePoint" />
            <mxPoint x="487.5" y="540" as="targetPoint" />
          </mxGeometry>
        </mxCell>
        <mxCell id="TgJzeR70lB42lgEgy3rk-20" value="Visualization" style="swimlane;horizontal=1;" parent="1" vertex="1">
          <mxGeometry x="30" y="140" width="360" height="500" as="geometry" />
        </mxCell>
        <mxCell id="TgJzeR70lB42lgEgy3rk-60" style="edgeStyle=none;rounded=0;orthogonalLoop=1;jettySize=auto;html=1;exitX=0.5;exitY=0;exitDx=0;exitDy=0;entryX=0.5;entryY=1;entryDx=0;entryDy=0;dashed=1;strokeWidth=2;fontSize=14;" parent="TgJzeR70lB42lgEgy3rk-20" source="TgJzeR70lB42lgEgy3rk-10" target="TgJzeR70lB42lgEgy3rk-26" edge="1">
          <mxGeometry relative="1" as="geometry" />
        </mxCell>
        <mxCell id="TgJzeR70lB42lgEgy3rk-10" value="&lt;h1&gt;&lt;font style=&quot;font-size: 20px&quot;&gt;Web-based Application&lt;/font&gt;&lt;/h1&gt;&lt;p&gt;&lt;font style=&quot;font-size: 14px&quot;&gt;Web-based dashboard for visualizing all of the records&lt;/font&gt;&lt;/p&gt;" style="text;html=1;strokeColor=#000000;fillColor=#C4C4C4;spacing=5;spacingTop=-20;whiteSpace=wrap;overflow=hidden;rounded=0;verticalAlign=middle;horizontal=1;align=center;labelPosition=center;verticalLabelPosition=middle;shadow=0;" parent="TgJzeR70lB42lgEgy3rk-20" vertex="1">
          <mxGeometry x="85" y="270" width="190" height="132.5" as="geometry" />
        </mxCell>
        <mxCell id="TgJzeR70lB42lgEgy3rk-26" value="&lt;h1&gt;&lt;font style=&quot;font-size: 20px&quot;&gt;Web Page&lt;br&gt;&lt;/font&gt;&lt;/h1&gt;&lt;p&gt;&lt;font style=&quot;font-size: 14px&quot;&gt;Dashboard and GUI for visualization and operation.&lt;/font&gt;&lt;/p&gt;" style="text;html=1;strokeColor=#000000;fillColor=#C4C4C4;spacing=5;spacingTop=-20;whiteSpace=wrap;overflow=hidden;rounded=0;verticalAlign=middle;horizontal=1;align=center;labelPosition=center;verticalLabelPosition=middle;shadow=0;" parent="TgJzeR70lB42lgEgy3rk-20" vertex="1">
          <mxGeometry x="85" y="80" width="190" height="122.5" as="geometry" />
        </mxCell>
        <mxCell id="TgJzeR70lB42lgEgy3rk-21" value="Code Analysis" style="swimlane;horizontal=1;" parent="1" vertex="1">
          <mxGeometry x="597.5" y="116.25" width="450" height="720" as="geometry" />
        </mxCell>
        <mxCell id="TgJzeR70lB42lgEgy3rk-49" style="edgeStyle=orthogonalEdgeStyle;rounded=0;orthogonalLoop=1;jettySize=auto;html=1;exitX=0.5;exitY=1;exitDx=0;exitDy=0;entryX=0.5;entryY=0;entryDx=0;entryDy=0;dashed=1;strokeWidth=2;horizontal=1;" parent="TgJzeR70lB42lgEgy3rk-21" source="TgJzeR70lB42lgEgy3rk-9" target="TgJzeR70lB42lgEgy3rk-16" edge="1">
          <mxGeometry relative="1" as="geometry" />
        </mxCell>
        <mxCell id="TgJzeR70lB42lgEgy3rk-9" value="&lt;h1&gt;&lt;font style=&quot;font-size: 20px&quot;&gt;Metrics Calculator&lt;/font&gt;&lt;/h1&gt;&lt;p&gt;&lt;font style=&quot;font-size: 14px&quot;&gt;Compute the metrics based on the metadata&amp;nbsp;&lt;/font&gt;&lt;/p&gt;" style="text;html=1;strokeColor=#000000;fillColor=#C4C4C4;spacing=5;spacingTop=-20;whiteSpace=wrap;overflow=hidden;rounded=0;verticalAlign=middle;horizontal=1;align=center;labelPosition=center;verticalLabelPosition=middle;shadow=0;" parent="TgJzeR70lB42lgEgy3rk-21" vertex="1">
          <mxGeometry x="100" y="410" width="230" height="120" as="geometry" />
        </mxCell>
        <mxCell id="TgJzeR70lB42lgEgy3rk-16" value="&lt;h1&gt;&lt;font style=&quot;font-size: 20px&quot;&gt;Formatting&lt;/font&gt;&lt;/h1&gt;&lt;p&gt;&lt;font style=&quot;font-size: 14px&quot;&gt;Formatting the generated records for persistence and visualization&lt;/font&gt;&lt;/p&gt;" style="text;html=1;strokeColor=#000000;fillColor=#C4C4C4;spacing=5;spacingTop=-20;whiteSpace=wrap;overflow=hidden;rounded=0;verticalAlign=middle;horizontal=1;align=center;labelPosition=center;verticalLabelPosition=middle;shadow=0;" parent="TgJzeR70lB42lgEgy3rk-21" vertex="1">
          <mxGeometry x="120" y="570" width="190" height="120" as="geometry" />
        </mxCell>
        <mxCell id="TgJzeR70lB42lgEgy3rk-48" value="Metadata" style="edgeStyle=orthogonalEdgeStyle;rounded=0;orthogonalLoop=1;jettySize=auto;html=1;exitX=0.5;exitY=1;exitDx=0;exitDy=0;entryX=0.5;entryY=0;entryDx=0;entryDy=0;dashed=1;strokeWidth=2;horizontal=1;fontSize=14;" parent="TgJzeR70lB42lgEgy3rk-21" source="TgJzeR70lB42lgEgy3rk-23" target="TgJzeR70lB42lgEgy3rk-9" edge="1">
          <mxGeometry relative="1" as="geometry" />
        </mxCell>
        <mxCell id="TgJzeR70lB42lgEgy3rk-23" value="&lt;h1&gt;&lt;font style=&quot;font-size: 20px&quot;&gt;Information Extractor&lt;/font&gt;&lt;/h1&gt;&lt;p&gt;&lt;font style=&quot;font-size: 14px&quot;&gt;Extract the information from source code or bytecode of target project as meta data&lt;/font&gt;&lt;/p&gt;" style="text;html=1;strokeColor=#000000;fillColor=#C4C4C4;spacing=5;spacingTop=-20;whiteSpace=wrap;overflow=hidden;rounded=0;verticalAlign=middle;horizontal=1;align=center;labelPosition=center;verticalLabelPosition=middle;shadow=0;" parent="TgJzeR70lB42lgEgy3rk-21" vertex="1">
          <mxGeometry x="105" y="220" width="220" height="140" as="geometry" />
        </mxCell>
        <mxCell id="TgJzeR70lB42lgEgy3rk-43" value="Inform" style="edgeStyle=orthogonalEdgeStyle;rounded=0;orthogonalLoop=1;jettySize=auto;html=1;exitX=0.5;exitY=1;exitDx=0;exitDy=0;entryX=0.5;entryY=0;entryDx=0;entryDy=0;dashed=1;strokeWidth=2;horizontal=1;fontSize=14;" parent="TgJzeR70lB42lgEgy3rk-21" source="TgJzeR70lB42lgEgy3rk-38" target="TgJzeR70lB42lgEgy3rk-23" edge="1">
          <mxGeometry relative="1" as="geometry" />
        </mxCell>
        <mxCell id="TgJzeR70lB42lgEgy3rk-38" value="&lt;h1&gt;&lt;font style=&quot;font-size: 20px&quot;&gt;Monitor&lt;/font&gt;&lt;/h1&gt;&lt;p&gt;&lt;span style=&quot;font-size: 14px&quot;&gt;support live monitor to existing project&lt;/span&gt;&lt;/p&gt;" style="text;html=1;strokeColor=#000000;fillColor=#C4C4C4;spacing=5;spacingTop=-20;whiteSpace=wrap;overflow=hidden;rounded=0;verticalAlign=middle;horizontal=1;align=center;labelPosition=center;verticalLabelPosition=middle;shadow=0;dashed=1;" parent="TgJzeR70lB42lgEgy3rk-21" vertex="1">
          <mxGeometry x="120" y="60" width="190" height="100" as="geometry" />
        </mxCell>
        <mxCell id="s-hYMVpeY3WAmGeIPR0p-4" value="Optional" style="text;html=1;strokeColor=none;fillColor=none;align=center;verticalAlign=middle;whiteSpace=wrap;rounded=0;dashed=1;fontSize=16;" parent="TgJzeR70lB42lgEgy3rk-21" vertex="1">
          <mxGeometry x="32.5" y="63.75" width="40" height="20" as="geometry" />
        </mxCell>
        <mxCell id="s-hYMVpeY3WAmGeIPR0p-5" style="rounded=0;orthogonalLoop=1;jettySize=auto;html=1;exitX=1;exitY=1;exitDx=0;exitDy=0;fontSize=16;endArrow=none;endFill=0;dashed=1;" parent="TgJzeR70lB42lgEgy3rk-21" source="s-hYMVpeY3WAmGeIPR0p-4" target="TgJzeR70lB42lgEgy3rk-38" edge="1">
          <mxGeometry relative="1" as="geometry" />
        </mxCell>
        <mxCell id="TgJzeR70lB42lgEgy3rk-22" value="Logging &amp; Testing" style="swimlane;horizontal=1;" parent="1" vertex="1">
          <mxGeometry x="170" y="870" width="530" height="200" as="geometry" />
        </mxCell>
        <mxCell id="TgJzeR70lB42lgEgy3rk-32" value="&lt;h1&gt;&lt;font style=&quot;font-size: 20px&quot;&gt;Logging&lt;/font&gt;&lt;/h1&gt;&lt;p&gt;Logging in different level&lt;/p&gt;" style="text;html=1;strokeColor=#000000;fillColor=#C4C4C4;spacing=5;spacingTop=-20;whiteSpace=wrap;overflow=hidden;rounded=0;verticalAlign=middle;horizontal=1;align=center;labelPosition=center;verticalLabelPosition=middle;shadow=0;" parent="TgJzeR70lB42lgEgy3rk-22" vertex="1">
          <mxGeometry x="50" y="50" width="190" height="120" as="geometry" />
        </mxCell>
        <mxCell id="TgJzeR70lB42lgEgy3rk-33" value="&lt;h1&gt;&lt;font style=&quot;font-size: 20px&quot;&gt;Testing&lt;/font&gt;&lt;/h1&gt;&lt;p&gt;&lt;span style=&quot;font-size: 14px&quot;&gt;Unit test&lt;/span&gt;&lt;/p&gt;" style="text;html=1;strokeColor=#000000;fillColor=#C4C4C4;spacing=5;spacingTop=-20;whiteSpace=wrap;overflow=hidden;rounded=0;verticalAlign=middle;horizontal=1;align=center;labelPosition=center;verticalLabelPosition=middle;shadow=0;" parent="TgJzeR70lB42lgEgy3rk-22" vertex="1">
          <mxGeometry x="290" y="50" width="190" height="120" as="geometry" />
        </mxCell>
        <mxCell id="TgJzeR70lB42lgEgy3rk-27" style="edgeStyle=orthogonalEdgeStyle;rounded=0;orthogonalLoop=1;jettySize=auto;html=1;exitX=1;exitY=0.5;exitDx=0;exitDy=0;entryX=0.5;entryY=1;entryDx=0;entryDy=0;dashed=1;strokeWidth=2;horizontal=1;fontSize=14;" parent="1" source="TgJzeR70lB42lgEgy3rk-23" target="TgJzeR70lB42lgEgy3rk-12" edge="1">
          <mxGeometry relative="1" as="geometry" />
        </mxCell>
        <mxCell id="TgJzeR70lB42lgEgy3rk-44" value="Extract information" style="edgeLabel;html=1;align=center;verticalAlign=middle;resizable=0;points=[];horizontal=1;fontSize=14;" parent="TgJzeR70lB42lgEgy3rk-27" vertex="1" connectable="0">
          <mxGeometry x="0.0128" y="1" relative="1" as="geometry">
            <mxPoint x="-63.33" y="-14" as="offset" />
          </mxGeometry>
        </mxCell>
        <mxCell id="TgJzeR70lB42lgEgy3rk-42" style="edgeStyle=orthogonalEdgeStyle;rounded=0;orthogonalLoop=1;jettySize=auto;html=1;exitX=1;exitY=0.5;exitDx=0;exitDy=0;entryX=0;entryY=0.5;entryDx=0;entryDy=0;dashed=1;strokeWidth=2;horizontal=1;" parent="1" source="TgJzeR70lB42lgEgy3rk-38" target="TgJzeR70lB42lgEgy3rk-12" edge="1">
          <mxGeometry relative="1" as="geometry" />
        </mxCell>
        <mxCell id="TgJzeR70lB42lgEgy3rk-47" value="Monitor any modification" style="edgeLabel;html=1;align=center;verticalAlign=middle;resizable=0;points=[];horizontal=1;fontSize=14;" parent="TgJzeR70lB42lgEgy3rk-42" vertex="1" connectable="0">
          <mxGeometry x="0.1855" relative="1" as="geometry">
            <mxPoint x="8.33" y="-10" as="offset" />
          </mxGeometry>
        </mxCell>
        <mxCell id="TgJzeR70lB42lgEgy3rk-50" style="edgeStyle=orthogonalEdgeStyle;rounded=0;orthogonalLoop=1;jettySize=auto;html=1;exitX=0;exitY=0.5;exitDx=0;exitDy=0;entryX=1;entryY=0.5;entryDx=0;entryDy=0;dashed=1;strokeWidth=2;horizontal=1;" parent="1" source="TgJzeR70lB42lgEgy3rk-16" target="TgJzeR70lB42lgEgy3rk-15" edge="1">
          <mxGeometry relative="1" as="geometry" />
        </mxCell>
        <mxCell id="TgJzeR70lB42lgEgy3rk-15" value="&lt;font&gt;&lt;b style=&quot;font-size: 20px&quot;&gt;Database&lt;/b&gt;&lt;br&gt;&lt;font style=&quot;font-size: 12px&quot;&gt;(MongoDB)&lt;/font&gt;&lt;br&gt;&lt;/font&gt;" style="shape=datastore;whiteSpace=wrap;html=1;strokeColor=#000000;fillColor=#C4C4C4;fontSize=12;align=center;shadow=0;horizontal=1;" parent="1" vertex="1">
          <mxGeometry x="142.5" y="694.38" width="135" height="103.75" as="geometry" />
        </mxCell>
        <mxCell id="TgJzeR70lB42lgEgy3rk-64" style="edgeStyle=none;rounded=0;orthogonalLoop=1;jettySize=auto;html=1;exitX=1;exitY=0.5;exitDx=0;exitDy=0;entryX=0;entryY=0.5;entryDx=0;entryDy=0;dashed=1;strokeWidth=2;fontSize=14;" parent="1" source="TgJzeR70lB42lgEgy3rk-10" target="TgJzeR70lB42lgEgy3rk-21" edge="1">
          <mxGeometry relative="1" as="geometry" />
        </mxCell>
        <mxCell id="TgJzeR70lB42lgEgy3rk-65" value="Control" style="edgeLabel;html=1;align=center;verticalAlign=middle;resizable=0;points=[];fontSize=14;" parent="TgJzeR70lB42lgEgy3rk-64" vertex="1" connectable="0">
          <mxGeometry x="0.1419" relative="1" as="geometry">
            <mxPoint x="-33" y="-16.25" as="offset" />
          </mxGeometry>
        </mxCell>
      </root>
    </mxGraphModel>
  </diagram>
</mxfile>
